<?xml version="1.0" standalone="no"?>
<!DOCTYPE svg PUBLIC "-//W3C//DTD SVG 20010904//EN"
 "http://www.w3.org/TR/2001/REC-SVG-20010904/DTD/svg10.dtd">
<svg version="1.0" xmlns="http://www.w3.org/2000/svg"
 width="1024.000000pt" height="1024.000000pt" viewBox="0 0 1024.000000 1024.000000"
 preserveAspectRatio="xMidYMid meet">

<g transform="translate(0.000000,1024.000000) scale(0.100000,-0.100000)"
fill="#000000" stroke="none">
<path d="M3689 8705 c-3 -2 -39 -9 -80 -15 -41 -6 -87 -15 -104 -20 -16 -5
-59 -16 -95 -26 -133 -34 -262 -87 -380 -157 -193 -113 -397 -281 -537 -444
-55 -65 -173 -232 -173 -247 0 -3 -17 -34 -38 -68 -100 -164 -183 -405 -213
-613 -12 -86 -11 -2515 1 -2590 35 -215 69 -327 149 -495 91 -192 240 -398
411 -564 124 -121 144 -137 274 -220 87 -56 259 -140 341 -166 39 -12 81 -26
93 -31 13 -5 57 -12 97 -16 64 -5 78 -3 107 15 56 35 60 52 62 249 1 175 2
179 28 219 53 83 139 133 224 134 64 0 112 -20 166 -68 59 -53 71 -88 78 -227
7 -140 18 -164 117 -256 101 -94 52 -89 984 -89 787 0 806 0 847 20 67 32 75
60 70 219 -5 152 -15 185 -74 244 -37 37 -77 59 -139 77 -43 12 -792 8 -893
-5 -84 -11 -163 17 -218 78 -63 70 -76 101 -81 193 -5 71 -2 88 17 127 69 138
223 199 370 146 l65 -24 555 3 c625 3 628 4 830 74 77 27 185 81 252 125 79
52 202 166 248 228 21 29 45 58 52 66 8 8 17 21 21 29 4 8 27 51 52 95 39 69
66 123 106 210 22 50 57 227 69 350 12 129 12 1038 0 1130 -14 105 -57 295
-71 309 -5 6 -9 16 -9 24 0 24 -117 260 -161 325 -158 235 -369 424 -588 529
-199 95 -243 109 -436 144 -146 26 -335 33 -860 33 -582 -1 -797 -12 -919 -48
-17 -5 -58 -17 -91 -26 -33 -9 -75 -23 -93 -31 -18 -8 -37 -14 -43 -14 -26 0
-215 -99 -314 -165 -158 -105 -276 -214 -420 -386 -49 -58 -114 -169 -130
-220 -17 -54 -17 -57 2 -100 26 -58 168 -235 241 -298 131 -115 173 -146 287
-215 121 -73 133 -79 215 -114 135 -58 218 -83 370 -114 99 -20 140 -22 665
-25 342 -2 572 -7 591 -13 45 -15 77 -64 76 -117 0 -34 -6 -49 -33 -75 l-32
-33 -806 -6 c-443 -3 -819 -9 -836 -13 -107 -26 -163 -42 -185 -53 -14 -7 -30
-13 -35 -13 -22 0 -176 -98 -248 -157 -41 -33 -104 -99 -140 -145 -37 -45 -70
-87 -75 -93 -13 -16 -72 -115 -72 -120 0 -3 -11 -28 -24 -55 -41 -85 -80 -233
-91 -345 -4 -39 -10 -278 -14 -530 l-7 -460 -77 79 c-124 126 -246 318 -302
477 -100 280 -95 199 -95 1466 0 909 2 1108 15 1204 15 117 39 229 55 264 6
11 21 51 35 88 26 70 63 148 74 157 14 11 71 99 71 109 0 6 60 71 133 144 97
97 154 146 217 183 165 99 305 156 485 196 87 20 131 20 1455 24 1570 5 1603
4 1815 -67 231 -77 434 -217 598 -414 152 -182 236 -354 283 -580 18 -85 19
-155 19 -1275 0 -1238 0 -1226 -42 -1365 -85 -276 -269 -539 -498 -709 -154
-115 -281 -163 -470 -177 -138 -10 -180 -19 -218 -44 -47 -31 -51 -49 -55
-235 -3 -201 4 -228 73 -268 37 -21 48 -23 150 -18 118 5 239 20 289 35 17 6
56 17 86 26 197 57 450 198 600 335 19 17 49 44 65 58 17 15 51 54 77 87 25
34 53 67 62 74 9 7 35 41 57 75 23 33 45 63 48 66 15 12 69 97 76 118 6 22 64
138 92 187 38 65 70 172 124 410 11 49 14 296 14 1345 0 1394 3 1305 -52 1500
-41 145 -51 170 -134 335 -167 332 -393 578 -711 777 -157 98 -290 159 -438
201 -239 68 -203 67 -1861 67 -817 0 -1488 -2 -1490 -5z m1247 -1531 c86 -41
147 -121 174 -231 11 -42 11 -62 1 -110 -29 -129 -80 -190 -212 -254 -43 -20
-125 -20 -194 1 -58 19 -78 31 -126 80 -33 34 -60 71 -64 89 -4 17 -11 33 -16
36 -12 8 -12 192 0 199 5 3 12 17 15 31 18 72 121 163 210 186 51 13 155 0
212 -27z m-857 -124 c89 -25 141 -93 141 -186 0 -68 -60 -146 -122 -158 -112
-22 -181 21 -218 137 -21 68 29 164 105 198 47 22 50 22 94 9z m2572 -466 c60
-29 100 -65 137 -122 30 -48 36 -67 40 -129 6 -93 -14 -149 -77 -216 -62 -66
-118 -92 -201 -92 -78 0 -127 20 -189 79 -64 61 -91 124 -91 217 0 65 4 85 28
130 29 55 111 129 144 129 9 0 20 5 23 10 10 17 148 12 186 -6z m-112 -1334
c62 -31 115 -83 147 -146 40 -79 40 -179 0 -259 -32 -61 -93 -122 -157 -156
l-44 -23 -1143 -1 -1144 0 -31 -37 c-18 -21 -47 -56 -66 -78 -47 -56 -101 -81
-187 -87 -60 -5 -78 -2 -125 20 -75 34 -123 93 -162 197 -30 80 -14 230 29
281 8 8 14 20 14 26 0 18 96 101 142 122 23 11 63 25 88 30 29 7 416 11 1070
11 1043 0 1250 4 1250 24 0 14 62 57 114 77 60 24 153 24 205 -1z"/>
<path d="M1285 2834 c-90 -33 -127 -99 -133 -237 -10 -222 88 -421 289 -589
112 -93 239 -150 389 -173 126 -19 1390 -22 1452 -3 68 20 78 43 78 179 0 132
11 163 72 209 32 24 39 25 233 28 284 5 269 8 373 -99 195 -202 356 -285 612
-315 112 -13 217 -15 620 -11 267 3 519 10 561 16 159 21 343 100 443 191 35
31 58 55 131 134 11 12 37 35 59 51 l39 29 196 7 c229 8 274 2 319 -44 43 -45
62 -113 62 -228 0 -86 2 -97 23 -116 12 -11 31 -24 42 -28 11 -5 317 -10 680
-11 536 -2 679 0 760 12 320 46 575 260 676 566 29 88 32 268 5 318 -27 51
-66 89 -113 111 -41 18 -83 19 -1431 19 -1539 0 -1467 3 -1515 -63 -13 -18
-39 -68 -57 -111 -73 -171 -181 -271 -345 -321 -42 -12 -138 -15 -593 -15
-615 0 -607 -1 -724 76 -97 65 -173 160 -218 273 -30 77 -61 118 -106 140 -41
21 -49 21 -1440 20 -1195 0 -1405 -3 -1439 -15z"/>
</g>
</svg>
